<svg width="735" height="460" viewBox="0 0 735 460" fill="none" xmlns="http://www.w3.org/2000/svg">
<g clip-path="url(#clip0_2_1033)">
<path d="M290.82 417.48C291.264 380.05 306.444 344.304 333.069 317.993C359.694 291.682 395.618 276.927 433.05 276.927C470.482 276.927 506.406 291.682 533.031 317.993C559.656 344.304 574.836 380.05 575.28 417.48H290.82Z" fill="#E0D8F3"/>
<path d="M180.73 301.27C161.083 305.683 143.724 307.89 128.65 307.89C103.94 307.89 85.1699 301.99 71.8299 290.17C38.9899 261.07 44.9098 202.17 51.1698 139.8L51.7401 133.95C51.9602 132.421 52.762 131.035 53.9784 130.082C55.1947 129.129 56.7316 128.681 58.2694 128.834C59.8071 128.986 61.2272 129.725 62.2332 130.898C63.2393 132.071 63.7536 133.587 63.6698 135.13L63.0599 141.06C57.1099 200.23 51.5098 256.29 79.7498 281.29C87.3098 287.99 97.1598 292.4 109.46 294.54C133.92 301.93 164.33 295.9 185.4 290.45C185.74 291.99 185.29 297.3 184.45 298.63C183.606 299.965 182.269 300.914 180.73 301.27V301.27Z" stroke="#766C8C" stroke-width="1.56" stroke-miterlimit="10"/>
<path d="M135.03 407.89C157.89 408.18 177.56 412.39 185.79 418.12L84.0399 416.81C92.4099 411.3 112.17 407.6 135.03 407.89Z" stroke="#766C8C" stroke-width="1.56" stroke-miterlimit="10"/>
<path d="M135.03 407.89L130.82 308.56" stroke="#766C8C" stroke-width="1.56" stroke-miterlimit="10"/>
<path d="M24.52 418.02H716.51" stroke="#766C8C" stroke-width="1.56" stroke-miterlimit="10"/>
<path d="M262.29 206.98L260.11 418.15" stroke="#766C8C" stroke-width="1.16" stroke-miterlimit="10"/>
<path d="M261.03 175.26C261.03 175.26 283.68 186.35 282.18 186.8C280.06 187.57 272.35 184.35 272.35 184.35C272.35 184.35 268.96 187.6 267.21 187.18C265.012 186.67 262.887 185.891 260.88 184.86" stroke="#766C8C" stroke-width="1.56" stroke-miterlimit="10"/>
<path d="M253.99 182.31C253.99 182.31 274.43 191.56 272.93 192.01C270.81 192.78 263.1 189.57 263.1 189.57C263.1 189.57 259.71 192.81 257.96 192.39C255.762 191.88 253.637 191.101 251.63 190.07" stroke="#766C8C" stroke-width="1.56" stroke-miterlimit="10"/>
<path d="M316.34 191.78H255.05V195.29H316.34V191.78Z" fill="#766C8C"/>
<path d="M312.47 191.88L333.12 145.23L335.53 146.03L315.88 191.78L312.47 191.88Z" stroke="#766C8C" stroke-miterlimit="10"/>
<path d="M77.9197 256.78L65.8099 157.78C65.5845 155.122 66.053 152.452 67.1697 150.03C67.4897 149.33 67.904 148.678 68.4002 148.09C69.8249 146.484 71.5822 145.208 73.5501 144.35L101.41 126.95" stroke="#766C8C" stroke-width="1.16" stroke-miterlimit="10"/>
<path d="M98.9801 85.5898C94.7101 98.1998 103.76 101.16 103.76 101.16L104.25 121.47C104.278 122.712 103.929 123.932 103.249 124.971C102.569 126.011 101.589 126.819 100.44 127.29" stroke="#766C8C" stroke-width="1.16" stroke-miterlimit="10"/>
<path d="M110.34 112.91L123.92 118.5C124.976 118.935 126.148 119.001 127.246 118.687C128.344 118.373 129.304 117.698 129.97 116.77L134.71 110.17C136.776 107.302 138.033 103.931 138.35 100.41C138.35 100.41 140.02 89.0099 140.71 80.4099" stroke="#766C8C" stroke-width="1.16" stroke-miterlimit="10"/>
<path d="M131.32 115.6C131.26 118.49 132.08 119.83 133.99 122C135.9 124.17 138.63 126.2 141.51 126.48" stroke="#766C8C" stroke-width="1.16" stroke-miterlimit="10"/>
<path d="M101.41 126.96C122.3 146.52 139.5 128.9 141.85 126.24" stroke="#766C8C" stroke-width="1.16" stroke-miterlimit="10"/>
<path d="M128.88 86.7601C134.25 85.9201 135.98 87.6 135.98 87.6" stroke="#766C8C" stroke-width="0.58" stroke-miterlimit="10"/>
<path d="M141.17 126.47C120.52 146.16 103.17 127.75 103.17 127.75C118.03 136.94 133.39 127.75 135 123.26L141.17 126.47Z" fill="#766C8C"/>
<path d="M144.02 133.42C141.131 136.221 137.761 138.477 134.07 140.08C130.342 141.614 126.291 142.202 122.28 141.79C118.317 141.304 114.478 140.087 110.96 138.2L108.36 136.76L105.88 135.11C105.049 134.567 104.247 133.98 103.48 133.35L101.14 131.52L103.52 133.3C104.296 133.914 105.107 134.481 105.95 135L108.45 136.6L111.08 137.97C114.591 139.767 118.406 140.893 122.33 141.29C126.245 141.612 130.179 140.96 133.78 139.39C137.337 137.753 140.569 135.486 143.32 132.7L144.02 133.42Z" fill="#231F20"/>
<path d="M423.41 197.54L236.52 195.15L236.37 206.73L423.23 209.12" stroke="#766C8C" stroke-width="1.16" stroke-miterlimit="10"/>
<path d="M77.2601 256.71C93.3901 252.76 230.83 221.71 230.83 221.71C236.27 220.65 357.97 361.71 357.97 361.71L345.97 362.44L217.16 270.92C167.41 306.15 93.7101 317.56 77.2601 256.71Z" fill="#766C8C"/>
<path d="M247.61 458.52L245.51 450.39L262.27 450.61C268.33 450.68 274.27 452.61 279.86 455.35C280.157 455.495 280.395 455.736 280.538 456.033C280.681 456.33 280.72 456.667 280.649 456.989C280.577 457.311 280.399 457.6 280.144 457.809C279.888 458.017 279.57 458.134 279.24 458.14L247.61 458.52Z" stroke="#766C8C" stroke-miterlimit="10"/>
<path d="M347.41 369.87L345.31 361.74L362.06 361.95C368.13 362.03 374.06 363.95 379.66 366.69C379.962 366.832 380.206 367.073 380.353 367.372C380.5 367.672 380.541 368.012 380.469 368.338C380.397 368.663 380.216 368.955 379.956 369.164C379.697 369.374 379.374 369.489 379.04 369.49L347.41 369.87Z" stroke="#766C8C" stroke-miterlimit="10"/>
<path d="M192.97 271.73L245.46 450.26L260.16 451.26L231.04 221.9L77.26 256.71L192.97 271.73Z" fill="#766C8C"/>
<path d="M141.17 126.47L155.89 129.47C158.868 130.09 161.582 131.615 163.66 133.836C165.738 136.058 167.079 138.867 167.5 141.88L173.77 189.21" stroke="#766C8C" stroke-width="1.16" stroke-miterlimit="10"/>
<path d="M96.85 158.15L117.16 197.33L241.61 180.24L243.23 192.58L104.61 224.79C101.879 225.43 99.0109 225.124 96.4764 223.921C93.942 222.718 91.8912 220.691 90.66 218.17L67.4999 171.54" stroke="#766C8C" stroke-width="1.16" stroke-miterlimit="10"/>
<path d="M171.48 174.48L260.74 175.07L261.44 185.61" stroke="#766C8C" stroke-width="1.16" stroke-miterlimit="10"/>
<path d="M241.76 180.48C242.11 180.41 253.95 181.88 253.95 181.88L251.95 190.57L243.03 191.99" stroke="#766C8C" stroke-width="1.16" stroke-miterlimit="10"/>
<path d="M175.08 207.94L177.7 234.49" stroke="#766C8C" stroke-width="1.16" stroke-miterlimit="10"/>
<path d="M69.2201 176.02L89.16 227.73C90.2347 230.527 92.3434 232.804 95.0497 234.09C97.7559 235.376 100.853 235.573 103.7 234.64L175.29 209.08L174.48 208.56L103.63 225.21C101.275 225.762 98.802 225.504 96.6117 224.477C94.4214 223.45 92.6415 221.714 91.5599 219.55L69.2201 176.02Z" fill="#766C8C"/>
<path d="M179.43 188.84L174.26 174.95L171.82 175.01L173.59 189.84L179.43 188.84Z" fill="#766C8C"/>
<path d="M139.33 77.6499C140.33 79.6499 140.41 83.8099 139.98 88.2099C139.55 92.6099 137.69 103.97 136.42 107.32C135.15 110.67 129.97 116.77 129.97 116.77C128.77 131.08 132.43 189.26 162.55 180.05C182.14 174.05 157.13 139.37 146.28 118.89C135.43 98.4099 157.99 85.1499 140.71 63.9599C138.23 60.9599 125.07 53.0599 111 58.9599C87.7097 68.6599 92.6897 112.75 103.25 125.02C103.25 125.02 104.11 122.96 104 111.02C103.89 99.08 102.45 101.41 98.9997 96.9499C95.5497 92.4899 98.1097 86.6398 101 84.8098C103.89 82.9798 111.95 78.0697 112.18 72.2797C112.18 72.2797 122.09 78.9098 129.81 79.5798C137.53 80.2498 139.33 77.6499 139.33 77.6499Z" fill="#766C8C"/>
<path d="M100.7 84.0898C101.28 85.9698 102.37 90.3798 102.9 92.5798C102.9 92.6117 102.913 92.6423 102.935 92.6648C102.958 92.6873 102.988 92.6999 103.02 92.6999C103.052 92.6999 103.082 92.6873 103.105 92.6648C103.127 92.6423 103.14 92.6117 103.14 92.5798C103.06 89.8398 103.24 83.58 106.44 80.48C110.59 76.48 101.14 79.0998 101.14 79.0998L100.7 84.0898Z" fill="#766C8C"/>
<path d="M140.81 86.8399C144.1 87.2299 146.63 88.65 146.24 91.95C146.005 93.4884 145.182 94.8753 143.943 95.8179C142.705 96.7606 141.149 97.1855 139.604 97.0025C138.058 96.8196 136.644 96.0432 135.66 94.8375C134.676 93.6317 134.199 92.0906 134.33 90.5399C134.72 87.2399 137.52 86.4499 140.81 86.8399Z" fill="white" stroke="#766C8C" stroke-width="0.87" stroke-miterlimit="10"/>
<path d="M117.88 88.5898L100.49 87.1799L100.01 85.6799L118.7 86.21" fill="white"/>
<path d="M117.88 88.5898L100.49 87.1799L100.01 85.6799L118.7 86.21" stroke="#766C8C" stroke-width="0.58" stroke-miterlimit="10"/>
<path d="M124.41 84.8999C127.71 85.2899 130.24 86.7 129.85 90C129.659 91.1338 129.147 92.189 128.374 93.04C127.601 93.891 126.6 94.5019 125.489 94.8C124.379 95.0982 123.206 95.0709 122.11 94.7217C121.015 94.3724 120.043 93.7157 119.31 92.8298C118.334 91.6403 117.844 90.1255 117.94 88.5898C118.3 85.2898 121.08 84.5099 124.41 84.8999Z" stroke="#766C8C" stroke-width="0.87" stroke-miterlimit="10"/>
<path d="M734.01 52.8798C549.2 225.94 94.4899 -186.29 0.479858 113.1" stroke="#766C8C" stroke-miterlimit="10"/>
</g>
<defs>
<clipPath id="clip0_2_1033">
<rect width="734.35" height="459.03" fill="white"/>
</clipPath>
</defs>
</svg>
