<svg width="183" height="193" viewBox="0 0 183 193" fill="none" xmlns="http://www.w3.org/2000/svg">
<path d="M18.4186 18.5136C36.926 0.0114689 58.6257 -0.0855349 91.4186 0.0114703C124.042 0.107974 145.426 0.0114708 163.919 18.5136C217.253 71.8749 143.419 192.514 91.4186 192.514C39.4182 192.514 -34.919 71.8359 18.4186 18.5136Z" fill="#766C8C"/>
<path d="M57.7437 69.4773C61.4937 75.797 62.1791 85.2896 55.4098 88.149C49.896 90.478 44.1644 88.5734 41.1939 82.4202C38.2234 76.267 37.799 63.9607 42.8913 62.0511C47.9836 60.1416 54.4345 63.9004 57.7437 69.4773Z" fill="white"/>
<path d="M85.3459 53.7105C85.5567 58.1662 82.0296 69.228 74.5248 69.6238C66.73 70.0349 61.5819 61.1367 62.4307 53.7105C63.2794 46.2843 66.3286 36.1034 74.5248 36.5241C82.4456 36.9307 85.135 49.2548 85.3459 53.7105Z" fill="white"/>
<path d="M106.564 69.6238C99.2388 69.7203 95.3183 60.0758 95.3183 54.5592C95.3183 49.0426 98.2927 37.1879 106.564 36.9484C115.328 36.6947 118.446 50.5278 118.021 56.2566C117.597 61.9854 113.439 69.5332 106.564 69.6238Z" fill="white"/>
<path d="M125.872 88.2954C131.259 90.8338 136.406 87.4595 140.088 82.7788C145.253 76.211 143.058 63.2585 137.329 61.561C131.601 59.8636 123.29 65.7556 121.416 73.2308C119.925 79.1818 120.322 85.6803 125.872 88.2954Z" fill="white"/>
<path d="M89.9734 77.2748C70.4532 78.1231 56.4494 101.25 51.3571 110.375C46.2647 119.499 52.8808 134.293 63.6634 135.199C69.3673 135.678 71.5195 129.773 77.2427 129.683C83.197 129.589 85.504 135.261 91.4586 135.199C97.2592 135.139 99.4494 129.713 105.25 129.683C111.128 129.652 112.04 135.199 119.254 135.199C126.468 135.199 137.289 123.529 130.711 110.375C124.134 97.2199 109.494 76.4265 89.9734 77.2748Z" fill="white"/>
<path fill-rule="evenodd" clip-rule="evenodd" d="M90.9932 99.1358C88.9938 96.7984 85.6597 96.1696 83.1547 98.31C80.6496 100.45 80.297 104.029 82.2642 106.56C83.8998 108.665 88.8498 113.104 90.4721 114.541C90.6536 114.702 90.7444 114.782 90.8502 114.814C90.9426 114.841 91.0437 114.841 91.1361 114.814C91.2419 114.782 91.3327 114.702 91.5142 114.541C93.1365 113.104 98.0865 108.665 99.7221 106.56C101.689 104.029 101.38 100.428 98.8316 98.31C96.2835 96.1922 92.9925 96.7984 90.9932 99.1358Z" fill="#766C8C" stroke="#766C8C" stroke-width="2" stroke-linecap="round" stroke-linejoin="round"/>
</svg>
