<svg width="261" height="266" viewBox="0 0 261 266" fill="none" xmlns="http://www.w3.org/2000/svg">
<path d="M57.713 18.5136C76.2204 0.0114689 97.9202 -0.0855349 130.713 0.0114703C163.336 0.107974 184.72 0.0114708 203.213 18.5136C256.548 71.8749 182.713 192.514 130.713 192.514C78.7127 192.514 4.3754 71.8359 57.713 18.5136Z" fill="white"/>
<path d="M97.0382 69.4773C100.788 75.797 101.474 85.2896 94.7042 88.149C89.1904 90.478 83.4588 88.5734 80.4883 82.4202C77.5178 76.267 77.0934 63.9607 82.1857 62.0511C87.278 60.1416 93.7289 63.9004 97.0382 69.4773Z" fill="#766C8C"/>
<path d="M124.64 53.7105C124.851 58.1662 121.324 69.228 113.819 69.6238C106.024 70.0349 100.876 61.1367 101.725 53.7105C102.574 46.2843 105.623 36.1034 113.819 36.5241C121.74 36.9307 124.429 49.2548 124.64 53.7105Z" fill="#766C8C"/>
<path d="M145.858 69.6238C138.533 69.7203 134.613 60.0758 134.613 54.5592C134.613 49.0426 137.587 37.1879 145.858 36.9484C154.622 36.6947 157.74 50.5278 157.316 56.2566C156.891 61.9854 152.733 69.5332 145.858 69.6238Z" fill="#766C8C"/>
<path d="M165.166 88.2954C170.553 90.8338 175.701 87.4595 179.382 82.7788C184.548 76.211 182.353 63.2585 176.624 61.561C170.895 59.8636 162.584 65.7556 160.711 73.2308C159.219 79.1818 159.617 85.6803 165.166 88.2954Z" fill="#766C8C"/>
<path d="M129.268 77.2748C109.748 78.1231 95.7438 101.25 90.6515 110.375C85.5592 119.499 92.1753 134.293 102.958 135.199C108.662 135.678 110.814 129.773 116.537 129.683C122.491 129.589 124.798 135.261 130.753 135.199C136.554 135.139 138.744 129.713 144.545 129.683C150.422 129.652 151.334 135.199 158.548 135.199C165.762 135.199 176.583 123.529 170.006 110.375C163.428 97.2199 148.788 76.4265 129.268 77.2748Z" fill="#766C8C"/>
<path d="M18.496 237.09C18.496 238.284 18.208 239.404 17.632 240.45C17.0773 241.495 16.192 242.338 14.976 242.978C13.7813 243.618 12.2667 243.938 10.432 243.938H6.688V252.514H2.208V230.178H10.432C12.16 230.178 13.632 230.476 14.848 231.074C16.064 231.671 16.9707 232.492 17.568 233.538C18.1867 234.583 18.496 235.767 18.496 237.09ZM10.24 240.322C11.4773 240.322 12.3947 240.044 12.992 239.49C13.5893 238.914 13.888 238.114 13.888 237.09C13.888 234.914 12.672 233.826 10.24 233.826H6.688V240.322H10.24ZM20.5247 243.586C20.5247 241.794 20.8767 240.204 21.5807 238.818C22.3061 237.431 23.2768 236.364 24.4928 235.618C25.7301 234.871 27.1061 234.498 28.6208 234.498C29.9434 234.498 31.0954 234.764 32.0768 235.298C33.0794 235.831 33.8794 236.503 34.4768 237.314V234.786H38.9888V252.514H34.4768V249.922C33.9008 250.754 33.1008 251.447 32.0768 252.002C31.0741 252.535 29.9114 252.802 28.5888 252.802C27.0954 252.802 25.7301 252.418 24.4928 251.65C23.2768 250.882 22.3061 249.804 21.5807 248.418C20.8767 247.01 20.5247 245.399 20.5247 243.586ZM34.4768 243.65C34.4768 242.562 34.2634 241.634 33.8368 240.866C33.4101 240.076 32.8341 239.479 32.1088 239.074C31.3834 238.647 30.6048 238.434 29.7728 238.434C28.9408 238.434 28.1728 238.636 27.4688 239.042C26.7648 239.447 26.1888 240.044 25.7408 240.834C25.3141 241.602 25.1008 242.519 25.1008 243.586C25.1008 244.652 25.3141 245.591 25.7408 246.402C26.1888 247.191 26.7648 247.799 27.4688 248.226C28.1941 248.652 28.9621 248.866 29.7728 248.866C30.6048 248.866 31.3834 248.663 32.1088 248.258C32.8341 247.831 33.4101 247.234 33.8368 246.466C34.2634 245.676 34.4768 244.738 34.4768 243.65ZM48.5803 238.466V247.042C48.5803 247.639 48.7189 248.076 48.9963 248.354C49.2949 248.61 49.7856 248.738 50.4683 248.738H52.5483V252.514H49.7323C45.9563 252.514 44.0683 250.679 44.0683 247.01V238.466H41.9563V234.786H44.0683V230.402H48.5803V234.786H52.5483V238.466H48.5803ZM58.0425 232.674C57.2532 232.674 56.5918 232.428 56.0585 231.938C55.5465 231.426 55.2905 230.796 55.2905 230.05C55.2905 229.303 55.5465 228.684 56.0585 228.194C56.5918 227.682 57.2532 227.426 58.0425 227.426C58.8318 227.426 59.4825 227.682 59.9945 228.194C60.5278 228.684 60.7945 229.303 60.7945 230.05C60.7945 230.796 60.5278 231.426 59.9945 231.938C59.4825 232.428 58.8318 232.674 58.0425 232.674ZM60.2505 234.786V252.514H55.7705V234.786H60.2505ZM74.5008 234.53C76.6128 234.53 78.3194 235.202 79.6208 236.546C80.9221 237.868 81.5728 239.724 81.5728 242.114V252.514H77.0928V242.722C77.0928 241.314 76.7408 240.236 76.0368 239.49C75.3328 238.722 74.3728 238.338 73.1568 238.338C71.9194 238.338 70.9381 238.722 70.2128 239.49C69.5088 240.236 69.1568 241.314 69.1568 242.722V252.514H64.6768V234.786H69.1568V236.994C69.7541 236.226 70.5114 235.628 71.4288 235.202C72.3674 234.754 73.3914 234.53 74.5008 234.53ZM95.817 234.53C97.161 234.53 98.3557 234.828 99.401 235.426C100.446 236.002 101.257 236.866 101.833 238.018C102.43 239.148 102.729 240.514 102.729 242.114V252.514H98.249V242.722C98.249 241.314 97.897 240.236 97.193 239.49C96.489 238.722 95.529 238.338 94.313 238.338C93.0757 238.338 92.0943 238.722 91.369 239.49C90.665 240.236 90.313 241.314 90.313 242.722V252.514H85.833V228.834H90.313V236.994C90.889 236.226 91.657 235.628 92.617 235.202C93.577 234.754 94.6437 234.53 95.817 234.53ZM105.837 243.586C105.837 241.794 106.189 240.204 106.893 238.818C107.619 237.431 108.589 236.364 109.805 235.618C111.043 234.871 112.419 234.498 113.933 234.498C115.256 234.498 116.408 234.764 117.389 235.298C118.392 235.831 119.192 236.503 119.789 237.314V234.786H124.301V252.514H119.789V249.922C119.213 250.754 118.413 251.447 117.389 252.002C116.387 252.535 115.224 252.802 113.901 252.802C112.408 252.802 111.043 252.418 109.805 251.65C108.589 250.882 107.619 249.804 106.893 248.418C106.189 247.01 105.837 245.399 105.837 243.586ZM119.789 243.65C119.789 242.562 119.576 241.634 119.149 240.866C118.723 240.076 118.147 239.479 117.421 239.074C116.696 238.647 115.917 238.434 115.085 238.434C114.253 238.434 113.485 238.636 112.781 239.042C112.077 239.447 111.501 240.044 111.053 240.834C110.627 241.602 110.413 242.519 110.413 243.586C110.413 244.652 110.627 245.591 111.053 246.402C111.501 247.191 112.077 247.799 112.781 248.226C113.507 248.652 114.275 248.866 115.085 248.866C115.917 248.866 116.696 248.663 117.421 248.258C118.147 247.831 118.723 247.234 119.149 246.466C119.576 245.676 119.789 244.738 119.789 243.65Z" fill="white"/>
<path d="M152.59 237.09C152.59 238.284 152.302 239.404 151.726 240.45C151.171 241.495 150.286 242.338 149.07 242.978C147.875 243.618 146.36 243.938 144.526 243.938H140.782V252.514H136.302V230.178H144.526C146.254 230.178 147.726 230.476 148.942 231.074C150.158 231.671 151.064 232.492 151.662 233.538C152.28 234.583 152.59 235.767 152.59 237.09ZM144.334 240.322C145.571 240.322 146.488 240.044 147.086 239.49C147.683 238.914 147.982 238.114 147.982 237.09C147.982 234.914 146.766 233.826 144.334 233.826H140.782V240.322H144.334ZM172.251 243.266C172.251 243.906 172.208 244.482 172.123 244.994H159.163C159.269 246.274 159.717 247.276 160.507 248.002C161.296 248.727 162.267 249.09 163.419 249.09C165.083 249.09 166.267 248.375 166.971 246.946H171.803C171.291 248.652 170.309 250.06 168.859 251.17C167.408 252.258 165.627 252.802 163.515 252.802C161.808 252.802 160.272 252.428 158.907 251.682C157.563 250.914 156.507 249.836 155.739 248.45C154.992 247.063 154.618 245.463 154.618 243.65C154.618 241.815 154.992 240.204 155.739 238.818C156.485 237.431 157.531 236.364 158.875 235.618C160.219 234.871 161.765 234.498 163.515 234.498C165.2 234.498 166.704 234.86 168.027 235.586C169.371 236.311 170.405 237.346 171.131 238.69C171.877 240.012 172.251 241.538 172.251 243.266ZM167.611 241.986C167.589 240.834 167.173 239.916 166.363 239.234C165.552 238.53 164.56 238.178 163.387 238.178C162.277 238.178 161.339 238.519 160.571 239.202C159.824 239.863 159.365 240.791 159.195 241.986H167.611ZM180.001 237.538C180.577 236.599 181.323 235.863 182.241 235.33C183.179 234.796 184.246 234.53 185.441 234.53V239.234H184.257C182.849 239.234 181.782 239.564 181.057 240.226C180.353 240.887 180.001 242.039 180.001 243.682V252.514H175.521V234.786H180.001V237.538ZM187.306 243.586C187.306 241.794 187.658 240.204 188.362 238.818C189.087 237.431 190.069 236.364 191.306 235.618C192.543 234.871 193.919 234.498 195.434 234.498C196.586 234.498 197.685 234.754 198.73 235.266C199.775 235.756 200.607 236.418 201.226 237.25V228.834H205.77V252.514H201.226V249.89C200.671 250.764 199.893 251.468 198.89 252.002C197.887 252.535 196.725 252.802 195.402 252.802C193.909 252.802 192.543 252.418 191.306 251.65C190.069 250.882 189.087 249.804 188.362 248.418C187.658 247.01 187.306 245.399 187.306 243.586ZM201.258 243.65C201.258 242.562 201.045 241.634 200.618 240.866C200.191 240.076 199.615 239.479 198.89 239.074C198.165 238.647 197.386 238.434 196.554 238.434C195.722 238.434 194.954 238.636 194.25 239.042C193.546 239.447 192.97 240.044 192.522 240.834C192.095 241.602 191.882 242.519 191.882 243.586C191.882 244.652 192.095 245.591 192.522 246.402C192.97 247.191 193.546 247.799 194.25 248.226C194.975 248.652 195.743 248.866 196.554 248.866C197.386 248.866 198.165 248.663 198.89 248.258C199.615 247.831 200.191 247.234 200.618 246.466C201.045 245.676 201.258 244.738 201.258 243.65ZM212.418 232.674C211.628 232.674 210.967 232.428 210.434 231.938C209.922 231.426 209.666 230.796 209.666 230.05C209.666 229.303 209.922 228.684 210.434 228.194C210.967 227.682 211.628 227.426 212.418 227.426C213.207 227.426 213.858 227.682 214.37 228.194C214.903 228.684 215.17 229.303 215.17 230.05C215.17 230.796 214.903 231.426 214.37 231.938C213.858 232.428 213.207 232.674 212.418 232.674ZM214.626 234.786V252.514H210.146V234.786H214.626ZM217.9 243.586C217.9 241.794 218.252 240.204 218.956 238.818C219.681 237.431 220.662 236.364 221.9 235.618C223.137 234.871 224.513 234.498 226.028 234.498C227.18 234.498 228.278 234.754 229.324 235.266C230.369 235.756 231.201 236.418 231.82 237.25V228.834H236.364V252.514H231.82V249.89C231.265 250.764 230.486 251.468 229.484 252.002C228.481 252.535 227.318 252.802 225.996 252.802C224.502 252.802 223.137 252.418 221.9 251.65C220.662 250.882 219.681 249.804 218.956 248.418C218.252 247.01 217.9 245.399 217.9 243.586ZM231.852 243.65C231.852 242.562 231.638 241.634 231.212 240.866C230.785 240.076 230.209 239.479 229.484 239.074C228.758 238.647 227.98 238.434 227.148 238.434C226.316 238.434 225.548 238.636 224.844 239.042C224.14 239.447 223.564 240.044 223.116 240.834C222.689 241.602 222.476 242.519 222.476 243.586C222.476 244.652 222.689 245.591 223.116 246.402C223.564 247.191 224.14 247.799 224.844 248.226C225.569 248.652 226.337 248.866 227.148 248.866C227.98 248.866 228.758 248.663 229.484 248.258C230.209 247.831 230.785 247.234 231.212 246.466C231.638 245.676 231.852 244.738 231.852 243.65ZM239.587 243.586C239.587 241.794 239.939 240.204 240.643 238.818C241.369 237.431 242.339 236.364 243.555 235.618C244.793 234.871 246.169 234.498 247.683 234.498C249.006 234.498 250.158 234.764 251.139 235.298C252.142 235.831 252.942 236.503 253.539 237.314V234.786H258.051V252.514H253.539V249.922C252.963 250.754 252.163 251.447 251.139 252.002C250.137 252.535 248.974 252.802 247.651 252.802C246.158 252.802 244.793 252.418 243.555 251.65C242.339 250.882 241.369 249.804 240.643 248.418C239.939 247.01 239.587 245.399 239.587 243.586ZM253.539 243.65C253.539 242.562 253.326 241.634 252.899 240.866C252.473 240.076 251.897 239.479 251.171 239.074C250.446 238.647 249.667 238.434 248.835 238.434C248.003 238.434 247.235 238.636 246.531 239.042C245.827 239.447 245.251 240.044 244.803 240.834C244.377 241.602 244.163 242.519 244.163 243.586C244.163 244.652 244.377 245.591 244.803 246.402C245.251 247.191 245.827 247.799 246.531 248.226C247.257 248.652 248.025 248.866 248.835 248.866C249.667 248.866 250.446 248.663 251.171 248.258C251.897 247.831 252.473 247.234 252.899 246.466C253.326 245.676 253.539 244.738 253.539 243.65Z" fill="white"/>
<path d="M152.59 237.09C152.59 238.284 152.302 239.404 151.726 240.45C151.171 241.495 150.286 242.338 149.07 242.978C147.875 243.618 146.36 243.938 144.526 243.938H140.782V252.514H136.302V230.178H144.526C146.254 230.178 147.726 230.476 148.942 231.074C150.158 231.671 151.064 232.492 151.662 233.538C152.28 234.583 152.59 235.767 152.59 237.09ZM144.334 240.322C145.571 240.322 146.488 240.044 147.086 239.49C147.683 238.914 147.982 238.114 147.982 237.09C147.982 234.914 146.766 233.826 144.334 233.826H140.782V240.322H144.334ZM172.251 243.266C172.251 243.906 172.208 244.482 172.123 244.994H159.163C159.269 246.274 159.717 247.276 160.507 248.002C161.296 248.727 162.267 249.09 163.419 249.09C165.083 249.09 166.267 248.375 166.971 246.946H171.803C171.291 248.652 170.309 250.06 168.859 251.17C167.408 252.258 165.627 252.802 163.515 252.802C161.808 252.802 160.272 252.428 158.907 251.682C157.563 250.914 156.507 249.836 155.739 248.45C154.992 247.063 154.618 245.463 154.618 243.65C154.618 241.815 154.992 240.204 155.739 238.818C156.485 237.431 157.531 236.364 158.875 235.618C160.219 234.871 161.765 234.498 163.515 234.498C165.2 234.498 166.704 234.86 168.027 235.586C169.371 236.311 170.405 237.346 171.131 238.69C171.877 240.012 172.251 241.538 172.251 243.266ZM167.611 241.986C167.589 240.834 167.173 239.916 166.363 239.234C165.552 238.53 164.56 238.178 163.387 238.178C162.277 238.178 161.339 238.519 160.571 239.202C159.824 239.863 159.365 240.791 159.195 241.986H167.611ZM180.001 237.538C180.577 236.599 181.323 235.863 182.241 235.33C183.179 234.796 184.246 234.53 185.441 234.53V239.234H184.257C182.849 239.234 181.782 239.564 181.057 240.226C180.353 240.887 180.001 242.039 180.001 243.682V252.514H175.521V234.786H180.001V237.538ZM187.306 243.586C187.306 241.794 187.658 240.204 188.362 238.818C189.087 237.431 190.069 236.364 191.306 235.618C192.543 234.871 193.919 234.498 195.434 234.498C196.586 234.498 197.685 234.754 198.73 235.266C199.775 235.756 200.607 236.418 201.226 237.25V228.834H205.77V252.514H201.226V249.89C200.671 250.764 199.893 251.468 198.89 252.002C197.887 252.535 196.725 252.802 195.402 252.802C193.909 252.802 192.543 252.418 191.306 251.65C190.069 250.882 189.087 249.804 188.362 248.418C187.658 247.01 187.306 245.399 187.306 243.586ZM201.258 243.65C201.258 242.562 201.045 241.634 200.618 240.866C200.191 240.076 199.615 239.479 198.89 239.074C198.165 238.647 197.386 238.434 196.554 238.434C195.722 238.434 194.954 238.636 194.25 239.042C193.546 239.447 192.97 240.044 192.522 240.834C192.095 241.602 191.882 242.519 191.882 243.586C191.882 244.652 192.095 245.591 192.522 246.402C192.97 247.191 193.546 247.799 194.25 248.226C194.975 248.652 195.743 248.866 196.554 248.866C197.386 248.866 198.165 248.663 198.89 248.258C199.615 247.831 200.191 247.234 200.618 246.466C201.045 245.676 201.258 244.738 201.258 243.65ZM212.418 232.674C211.628 232.674 210.967 232.428 210.434 231.938C209.922 231.426 209.666 230.796 209.666 230.05C209.666 229.303 209.922 228.684 210.434 228.194C210.967 227.682 211.628 227.426 212.418 227.426C213.207 227.426 213.858 227.682 214.37 228.194C214.903 228.684 215.17 229.303 215.17 230.05C215.17 230.796 214.903 231.426 214.37 231.938C213.858 232.428 213.207 232.674 212.418 232.674ZM214.626 234.786V252.514H210.146V234.786H214.626ZM217.9 243.586C217.9 241.794 218.252 240.204 218.956 238.818C219.681 237.431 220.662 236.364 221.9 235.618C223.137 234.871 224.513 234.498 226.028 234.498C227.18 234.498 228.278 234.754 229.324 235.266C230.369 235.756 231.201 236.418 231.82 237.25V228.834H236.364V252.514H231.82V249.89C231.265 250.764 230.486 251.468 229.484 252.002C228.481 252.535 227.318 252.802 225.996 252.802C224.502 252.802 223.137 252.418 221.9 251.65C220.662 250.882 219.681 249.804 218.956 248.418C218.252 247.01 217.9 245.399 217.9 243.586ZM231.852 243.65C231.852 242.562 231.638 241.634 231.212 240.866C230.785 240.076 230.209 239.479 229.484 239.074C228.758 238.647 227.98 238.434 227.148 238.434C226.316 238.434 225.548 238.636 224.844 239.042C224.14 239.447 223.564 240.044 223.116 240.834C222.689 241.602 222.476 242.519 222.476 243.586C222.476 244.652 222.689 245.591 223.116 246.402C223.564 247.191 224.14 247.799 224.844 248.226C225.569 248.652 226.337 248.866 227.148 248.866C227.98 248.866 228.758 248.663 229.484 248.258C230.209 247.831 230.785 247.234 231.212 246.466C231.638 245.676 231.852 244.738 231.852 243.65ZM239.587 243.586C239.587 241.794 239.939 240.204 240.643 238.818C241.369 237.431 242.339 236.364 243.555 235.618C244.793 234.871 246.169 234.498 247.683 234.498C249.006 234.498 250.158 234.764 251.139 235.298C252.142 235.831 252.942 236.503 253.539 237.314V234.786H258.051V252.514H253.539V249.922C252.963 250.754 252.163 251.447 251.139 252.002C250.137 252.535 248.974 252.802 247.651 252.802C246.158 252.802 244.793 252.418 243.555 251.65C242.339 250.882 241.369 249.804 240.643 248.418C239.939 247.01 239.587 245.399 239.587 243.586ZM253.539 243.65C253.539 242.562 253.326 241.634 252.899 240.866C252.473 240.076 251.897 239.479 251.171 239.074C250.446 238.647 249.667 238.434 248.835 238.434C248.003 238.434 247.235 238.636 246.531 239.042C245.827 239.447 245.251 240.044 244.803 240.834C244.377 241.602 244.163 242.519 244.163 243.586C244.163 244.652 244.377 245.591 244.803 246.402C245.251 247.191 245.827 247.799 246.531 248.226C247.257 248.652 248.025 248.866 248.835 248.866C249.667 248.866 250.446 248.663 251.171 248.258C251.897 247.831 252.473 247.234 252.899 246.466C253.326 245.676 253.539 244.738 253.539 243.65Z" fill="white"/>
<path d="M152.59 237.09C152.59 238.284 152.302 239.404 151.726 240.45C151.171 241.495 150.286 242.338 149.07 242.978C147.875 243.618 146.36 243.938 144.526 243.938H140.782V252.514H136.302V230.178H144.526C146.254 230.178 147.726 230.476 148.942 231.074C150.158 231.671 151.064 232.492 151.662 233.538C152.28 234.583 152.59 235.767 152.59 237.09ZM144.334 240.322C145.571 240.322 146.488 240.044 147.086 239.49C147.683 238.914 147.982 238.114 147.982 237.09C147.982 234.914 146.766 233.826 144.334 233.826H140.782V240.322H144.334ZM172.251 243.266C172.251 243.906 172.208 244.482 172.123 244.994H159.163C159.269 246.274 159.717 247.276 160.507 248.002C161.296 248.727 162.267 249.09 163.419 249.09C165.083 249.09 166.267 248.375 166.971 246.946H171.803C171.291 248.652 170.309 250.06 168.859 251.17C167.408 252.258 165.627 252.802 163.515 252.802C161.808 252.802 160.272 252.428 158.907 251.682C157.563 250.914 156.507 249.836 155.739 248.45C154.992 247.063 154.618 245.463 154.618 243.65C154.618 241.815 154.992 240.204 155.739 238.818C156.485 237.431 157.531 236.364 158.875 235.618C160.219 234.871 161.765 234.498 163.515 234.498C165.2 234.498 166.704 234.86 168.027 235.586C169.371 236.311 170.405 237.346 171.131 238.69C171.877 240.012 172.251 241.538 172.251 243.266ZM167.611 241.986C167.589 240.834 167.173 239.916 166.363 239.234C165.552 238.53 164.56 238.178 163.387 238.178C162.277 238.178 161.339 238.519 160.571 239.202C159.824 239.863 159.365 240.791 159.195 241.986H167.611ZM180.001 237.538C180.577 236.599 181.323 235.863 182.241 235.33C183.179 234.796 184.246 234.53 185.441 234.53V239.234H184.257C182.849 239.234 181.782 239.564 181.057 240.226C180.353 240.887 180.001 242.039 180.001 243.682V252.514H175.521V234.786H180.001V237.538ZM187.306 243.586C187.306 241.794 187.658 240.204 188.362 238.818C189.087 237.431 190.069 236.364 191.306 235.618C192.543 234.871 193.919 234.498 195.434 234.498C196.586 234.498 197.685 234.754 198.73 235.266C199.775 235.756 200.607 236.418 201.226 237.25V228.834H205.77V252.514H201.226V249.89C200.671 250.764 199.893 251.468 198.89 252.002C197.887 252.535 196.725 252.802 195.402 252.802C193.909 252.802 192.543 252.418 191.306 251.65C190.069 250.882 189.087 249.804 188.362 248.418C187.658 247.01 187.306 245.399 187.306 243.586ZM201.258 243.65C201.258 242.562 201.045 241.634 200.618 240.866C200.191 240.076 199.615 239.479 198.89 239.074C198.165 238.647 197.386 238.434 196.554 238.434C195.722 238.434 194.954 238.636 194.25 239.042C193.546 239.447 192.97 240.044 192.522 240.834C192.095 241.602 191.882 242.519 191.882 243.586C191.882 244.652 192.095 245.591 192.522 246.402C192.97 247.191 193.546 247.799 194.25 248.226C194.975 248.652 195.743 248.866 196.554 248.866C197.386 248.866 198.165 248.663 198.89 248.258C199.615 247.831 200.191 247.234 200.618 246.466C201.045 245.676 201.258 244.738 201.258 243.65ZM212.418 232.674C211.628 232.674 210.967 232.428 210.434 231.938C209.922 231.426 209.666 230.796 209.666 230.05C209.666 229.303 209.922 228.684 210.434 228.194C210.967 227.682 211.628 227.426 212.418 227.426C213.207 227.426 213.858 227.682 214.37 228.194C214.903 228.684 215.17 229.303 215.17 230.05C215.17 230.796 214.903 231.426 214.37 231.938C213.858 232.428 213.207 232.674 212.418 232.674ZM214.626 234.786V252.514H210.146V234.786H214.626ZM217.9 243.586C217.9 241.794 218.252 240.204 218.956 238.818C219.681 237.431 220.662 236.364 221.9 235.618C223.137 234.871 224.513 234.498 226.028 234.498C227.18 234.498 228.278 234.754 229.324 235.266C230.369 235.756 231.201 236.418 231.82 237.25V228.834H236.364V252.514H231.82V249.89C231.265 250.764 230.486 251.468 229.484 252.002C228.481 252.535 227.318 252.802 225.996 252.802C224.502 252.802 223.137 252.418 221.9 251.65C220.662 250.882 219.681 249.804 218.956 248.418C218.252 247.01 217.9 245.399 217.9 243.586ZM231.852 243.65C231.852 242.562 231.638 241.634 231.212 240.866C230.785 240.076 230.209 239.479 229.484 239.074C228.758 238.647 227.98 238.434 227.148 238.434C226.316 238.434 225.548 238.636 224.844 239.042C224.14 239.447 223.564 240.044 223.116 240.834C222.689 241.602 222.476 242.519 222.476 243.586C222.476 244.652 222.689 245.591 223.116 246.402C223.564 247.191 224.14 247.799 224.844 248.226C225.569 248.652 226.337 248.866 227.148 248.866C227.98 248.866 228.758 248.663 229.484 248.258C230.209 247.831 230.785 247.234 231.212 246.466C231.638 245.676 231.852 244.738 231.852 243.65ZM239.587 243.586C239.587 241.794 239.939 240.204 240.643 238.818C241.369 237.431 242.339 236.364 243.555 235.618C244.793 234.871 246.169 234.498 247.683 234.498C249.006 234.498 250.158 234.764 251.139 235.298C252.142 235.831 252.942 236.503 253.539 237.314V234.786H258.051V252.514H253.539V249.922C252.963 250.754 252.163 251.447 251.139 252.002C250.137 252.535 248.974 252.802 247.651 252.802C246.158 252.802 244.793 252.418 243.555 251.65C242.339 250.882 241.369 249.804 240.643 248.418C239.939 247.01 239.587 245.399 239.587 243.586ZM253.539 243.65C253.539 242.562 253.326 241.634 252.899 240.866C252.473 240.076 251.897 239.479 251.171 239.074C250.446 238.647 249.667 238.434 248.835 238.434C248.003 238.434 247.235 238.636 246.531 239.042C245.827 239.447 245.251 240.044 244.803 240.834C244.377 241.602 244.163 242.519 244.163 243.586C244.163 244.652 244.377 245.591 244.803 246.402C245.251 247.191 245.827 247.799 246.531 248.226C247.257 248.652 248.025 248.866 248.835 248.866C249.667 248.866 250.446 248.663 251.171 248.258C251.897 247.831 252.473 247.234 252.899 246.466C253.326 245.676 253.539 244.738 253.539 243.65Z" fill="white"/>
<path fill-rule="evenodd" clip-rule="evenodd" d="M129.993 99.1358C127.994 96.7984 124.66 96.1696 122.155 98.31C119.65 100.45 119.297 104.029 121.264 106.56C122.9 108.665 127.85 113.104 129.472 114.541C129.654 114.702 129.744 114.782 129.85 114.814C129.943 114.841 130.044 114.841 130.136 114.814C130.242 114.782 130.333 114.702 130.514 114.541C132.137 113.104 137.086 108.665 138.722 106.56C140.689 104.029 140.38 100.428 137.832 98.31C135.283 96.1922 131.993 96.7984 129.993 99.1358Z" fill="white" stroke="white" stroke-width="2" stroke-linecap="round" stroke-linejoin="round"/>
</svg>
