<svg width="668" height="130" viewBox="0 0 668 130" fill="none" xmlns="http://www.w3.org/2000/svg">
<path d="M12.3187 12.6625C24.6968 0.264521 39.2101 0.19952 61.1426 0.264522C82.9616 0.329187 97.2635 0.264522 109.632 12.6625C145.303 48.4189 95.9214 129.257 61.1425 129.257C26.3637 129.257 -23.3545 48.3928 12.3187 12.6625Z" fill="#766C8C"/>
<path d="M38.6202 46.7247C41.1282 50.9514 41.5866 57.3003 37.0592 59.2127C33.3714 60.7704 29.538 59.4965 27.5513 55.3812C25.5646 51.2658 25.2807 43.0351 28.6866 41.7579C32.0924 40.4808 36.4069 42.9948 38.6202 46.7247Z" fill="white"/>
<path d="M57.081 36.1796C57.2221 39.1596 54.8631 46.558 49.8437 46.8227C44.6304 47.0977 41.1873 41.1463 41.7549 36.1796C42.3226 31.2128 44.362 24.4036 49.8437 24.685C55.1413 24.9569 56.94 33.1995 57.081 36.1796Z" fill="white"/>
<path d="M71.2719 46.8227C66.3729 46.8872 63.7508 40.4368 63.7508 36.7472C63.7508 33.0576 65.7402 25.1289 71.2719 24.9688C77.1337 24.7991 79.2188 34.0509 78.935 37.8824C78.6512 41.714 75.87 46.7621 71.2719 46.8227Z" fill="white"/>
<path d="M84.1856 59.3106C87.7885 61.0084 91.2313 58.7516 93.6935 55.621C97.1484 51.2284 95.6802 42.5654 91.8487 41.4302C88.0172 40.2949 82.4586 44.2355 81.2056 49.2351C80.208 53.2153 80.4738 57.5616 84.1856 59.3106Z" fill="white"/>
<path d="M60.1758 51.9398C47.1203 52.5071 37.7543 67.9752 34.3484 74.0775C30.9426 80.1799 35.3675 90.075 42.5791 90.6808C46.394 91.0013 47.8334 87.0514 51.6613 86.9912C55.6436 86.9286 57.1865 90.722 61.1691 90.6808C65.0486 90.6407 66.5135 87.0115 70.3932 86.9912C74.3244 86.9706 74.9343 90.6808 79.7592 90.6808C84.584 90.6808 91.8214 82.8756 87.4222 74.0775C83.0231 65.2795 73.2313 51.3725 60.1758 51.9398Z" fill="white"/>
<path d="M183.992 55.9088C183.992 58.2982 183.416 60.5382 182.264 62.6288C181.155 64.7195 179.384 66.4048 176.952 67.6848C174.563 68.9648 171.533 69.6048 167.864 69.6048H160.376V86.7568H151.416V42.0848H167.864C171.32 42.0848 174.264 42.6822 176.696 43.8768C179.128 45.0715 180.941 46.7142 182.136 48.8048C183.373 50.8955 183.992 53.2635 183.992 55.9088ZM167.48 62.3728C169.955 62.3728 171.789 61.8182 172.984 60.7088C174.179 59.5568 174.776 57.9568 174.776 55.9088C174.776 51.5568 172.344 49.3808 167.48 49.3808H160.376V62.3728H167.48ZM188.049 68.9008C188.049 65.3168 188.753 62.1382 190.161 59.3648C191.612 56.5915 193.554 54.4582 195.986 52.9648C198.46 51.4715 201.212 50.7248 204.242 50.7248C206.887 50.7248 209.191 51.2582 211.154 52.3248C213.159 53.3915 214.759 54.7355 215.954 56.3568V51.3008H224.978V86.7568H215.954V81.5728C214.802 83.2368 213.202 84.6235 211.154 85.7328C209.148 86.7995 206.823 87.3328 204.178 87.3328C201.191 87.3328 198.46 86.5648 195.986 85.0288C193.554 83.4928 191.612 81.3382 190.161 78.5648C188.753 75.7488 188.049 72.5275 188.049 68.9008ZM215.954 69.0288C215.954 66.8528 215.527 64.9968 214.674 63.4608C213.82 61.8822 212.668 60.6875 211.218 59.8768C209.767 59.0235 208.21 58.5968 206.546 58.5968C204.882 58.5968 203.346 59.0022 201.938 59.8128C200.53 60.6235 199.378 61.8182 198.482 63.3968C197.628 64.9328 197.202 66.7675 197.202 68.9008C197.202 71.0342 197.628 72.9115 198.482 74.5328C199.378 76.1115 200.53 77.3275 201.938 78.1808C203.388 79.0342 204.924 79.4608 206.546 79.4608C208.21 79.4608 209.767 79.0555 211.218 78.2448C212.668 77.3915 213.82 76.1968 214.674 74.6608C215.527 73.0822 215.954 71.2048 215.954 69.0288ZM244.161 58.6608V75.8128C244.161 77.0075 244.438 77.8822 244.993 78.4368C245.59 78.9488 246.571 79.2048 247.937 79.2048H252.097V86.7568H246.465C238.913 86.7568 235.137 83.0875 235.137 75.7488V58.6608H230.913V51.3008H235.137V42.5328H244.161V51.3008H252.097V58.6608H244.161ZM263.085 47.0768C261.506 47.0768 260.184 46.5862 259.117 45.6048C258.093 44.5808 257.581 43.3222 257.581 41.8288C257.581 40.3355 258.093 39.0982 259.117 38.1168C260.184 37.0928 261.506 36.5808 263.085 36.5808C264.664 36.5808 265.965 37.0928 266.989 38.1168C268.056 39.0982 268.589 40.3355 268.589 41.8288C268.589 43.3222 268.056 44.5808 266.989 45.6048C265.965 46.5862 264.664 47.0768 263.085 47.0768ZM267.501 51.3008V86.7568H258.541V51.3008H267.501ZM296.002 50.7888C300.226 50.7888 303.639 52.1328 306.242 54.8208C308.844 57.4662 310.146 61.1782 310.146 65.9568V86.7568H301.186V67.1728C301.186 64.3568 300.482 62.2022 299.074 60.7088C297.666 59.1728 295.746 58.4048 293.314 58.4048C290.839 58.4048 288.876 59.1728 287.426 60.7088C286.018 62.2022 285.314 64.3568 285.314 67.1728V86.7568H276.354V51.3008H285.314V55.7168C286.508 54.1808 288.023 52.9862 289.858 52.1328C291.735 51.2368 293.783 50.7888 296.002 50.7888ZM338.634 50.7888C341.322 50.7888 343.711 51.3862 345.802 52.5808C347.893 53.7328 349.514 55.4608 350.666 57.7648C351.861 60.0262 352.458 62.7568 352.458 65.9568V86.7568H343.498V67.1728C343.498 64.3568 342.794 62.2022 341.386 60.7088C339.978 59.1728 338.058 58.4048 335.626 58.4048C333.151 58.4048 331.189 59.1728 329.738 60.7088C328.33 62.2022 327.626 64.3568 327.626 67.1728V86.7568H318.666V39.3968H327.626V55.7168C328.778 54.1808 330.314 52.9862 332.234 52.1328C334.154 51.2368 336.287 50.7888 338.634 50.7888ZM358.674 68.9008C358.674 65.3168 359.378 62.1382 360.786 59.3648C362.237 56.5915 364.179 54.4582 366.611 52.9648C369.085 51.4715 371.837 50.7248 374.867 50.7248C377.512 50.7248 379.816 51.2582 381.779 52.3248C383.784 53.3915 385.384 54.7355 386.579 56.3568V51.3008H395.603V86.7568H386.579V81.5728C385.427 83.2368 383.827 84.6235 381.779 85.7328C379.773 86.7995 377.448 87.3328 374.803 87.3328C371.816 87.3328 369.085 86.5648 366.611 85.0288C364.179 83.4928 362.237 81.3382 360.786 78.5648C359.378 75.7488 358.674 72.5275 358.674 68.9008ZM386.579 69.0288C386.579 66.8528 386.152 64.9968 385.299 63.4608C384.445 61.8822 383.293 60.6875 381.843 59.8768C380.392 59.0235 378.835 58.5968 377.171 58.5968C375.507 58.5968 373.971 59.0022 372.562 59.8128C371.155 60.6235 370.003 61.8182 369.107 63.3968C368.253 64.9328 367.827 66.7675 367.827 68.9008C367.827 71.0342 368.253 72.9115 369.107 74.5328C370.003 76.1115 371.155 77.3275 372.562 78.1808C374.013 79.0342 375.549 79.4608 377.171 79.4608C378.835 79.4608 380.392 79.0555 381.843 78.2448C383.293 77.3915 384.445 76.1968 385.299 74.6608C386.152 73.0822 386.579 71.2048 386.579 69.0288ZM452.18 55.9088C452.18 58.2982 451.604 60.5382 450.451 62.6288C449.342 64.7195 447.572 66.4048 445.14 67.6848C442.75 68.9648 439.721 69.6048 436.052 69.6048H428.564V86.7568H419.604V42.0848H436.052C439.508 42.0848 442.452 42.6822 444.884 43.8768C447.316 45.0715 449.129 46.7142 450.324 48.8048C451.561 50.8955 452.18 53.2635 452.18 55.9088ZM435.668 62.3728C438.142 62.3728 439.977 61.8182 441.172 60.7088C442.366 59.5568 442.964 57.9568 442.964 55.9088C442.964 51.5568 440.532 49.3808 435.668 49.3808H428.564V62.3728H435.668ZM491.501 68.2608C491.501 69.5408 491.416 70.6928 491.245 71.7168H465.325C465.538 74.2768 466.434 76.2822 468.013 77.7328C469.592 79.1835 471.533 79.9088 473.837 79.9088C477.165 79.9088 479.533 78.4795 480.941 75.6208H490.605C489.581 79.0342 487.618 81.8502 484.717 84.0688C481.816 86.2448 478.253 87.3328 474.029 87.3328C470.616 87.3328 467.544 86.5862 464.813 85.0928C462.125 83.5568 460.013 81.4022 458.477 78.6288C456.984 75.8555 456.237 72.6555 456.237 69.0288C456.237 65.3595 456.984 62.1382 458.477 59.3648C459.97 56.5915 462.061 54.4582 464.749 52.9648C467.437 51.4715 470.53 50.7248 474.029 50.7248C477.4 50.7248 480.408 51.4502 483.053 52.9008C485.741 54.3515 487.81 56.4208 489.261 59.1088C490.754 61.7542 491.501 64.8048 491.501 68.2608ZM482.221 65.7008C482.178 63.3968 481.346 61.5622 479.725 60.1968C478.104 58.7888 476.12 58.0848 473.773 58.0848C471.554 58.0848 469.677 58.7675 468.141 60.1328C466.648 61.4555 465.73 63.3115 465.389 65.7008H482.221ZM507.001 56.8048C508.153 54.9275 509.646 53.4555 511.481 52.3888C513.358 51.3222 515.492 50.7888 517.881 50.7888V60.1968H515.513C512.697 60.1968 510.564 60.8582 509.113 62.1808C507.705 63.5035 507.001 65.8075 507.001 69.0928V86.7568H498.041V51.3008H507.001V56.8048ZM521.612 68.9008C521.612 65.3168 522.316 62.1382 523.724 59.3648C525.175 56.5915 527.137 54.4582 529.612 52.9648C532.087 51.4715 534.839 50.7248 537.868 50.7248C540.172 50.7248 542.369 51.2368 544.46 52.2608C546.551 53.2422 548.215 54.5648 549.452 56.2288V39.3968H558.54V86.7568H549.452V81.5088C548.343 83.2582 546.785 84.6662 544.78 85.7328C542.775 86.7995 540.449 87.3328 537.804 87.3328C534.817 87.3328 532.087 86.5648 529.612 85.0288C527.137 83.4928 525.175 81.3382 523.724 78.5648C522.316 75.7488 521.612 72.5275 521.612 68.9008ZM549.516 69.0288C549.516 66.8528 549.089 64.9968 548.236 63.4608C547.383 61.8822 546.231 60.6875 544.78 59.8768C543.329 59.0235 541.772 58.5968 540.108 58.5968C538.444 58.5968 536.908 59.0022 535.5 59.8128C534.092 60.6235 532.94 61.8182 532.044 63.3968C531.191 64.9328 530.764 66.7675 530.764 68.9008C530.764 71.0342 531.191 72.9115 532.044 74.5328C532.94 76.1115 534.092 77.3275 535.5 78.1808C536.951 79.0342 538.487 79.4608 540.108 79.4608C541.772 79.4608 543.329 79.0555 544.78 78.2448C546.231 77.3915 547.383 76.1968 548.236 74.6608C549.089 73.0822 549.516 71.2048 549.516 69.0288ZM571.835 47.0768C570.256 47.0768 568.934 46.5862 567.867 45.6048C566.843 44.5808 566.331 43.3222 566.331 41.8288C566.331 40.3355 566.843 39.0982 567.867 38.1168C568.934 37.0928 570.256 36.5808 571.835 36.5808C573.414 36.5808 574.715 37.0928 575.739 38.1168C576.806 39.0982 577.339 40.3355 577.339 41.8288C577.339 43.3222 576.806 44.5808 575.739 45.6048C574.715 46.5862 573.414 47.0768 571.835 47.0768ZM576.251 51.3008V86.7568H567.291V51.3008H576.251ZM582.799 68.9008C582.799 65.3168 583.503 62.1382 584.911 59.3648C586.362 56.5915 588.325 54.4582 590.8 52.9648C593.274 51.4715 596.026 50.7248 599.056 50.7248C601.36 50.7248 603.557 51.2368 605.648 52.2608C607.738 53.2422 609.402 54.5648 610.64 56.2288V39.3968H619.728V86.7568H610.64V81.5088C609.53 83.2582 607.973 84.6662 605.968 85.7328C603.962 86.7995 601.637 87.3328 598.992 87.3328C596.005 87.3328 593.274 86.5648 590.8 85.0288C588.325 83.4928 586.362 81.3382 584.911 78.5648C583.503 75.7488 582.799 72.5275 582.799 68.9008ZM610.704 69.0288C610.704 66.8528 610.277 64.9968 609.424 63.4608C608.57 61.8822 607.418 60.6875 605.968 59.8768C604.517 59.0235 602.96 58.5968 601.296 58.5968C599.632 58.5968 598.096 59.0022 596.688 59.8128C595.28 60.6235 594.128 61.8182 593.232 63.3968C592.378 64.9328 591.952 66.7675 591.952 68.9008C591.952 71.0342 592.378 72.9115 593.232 74.5328C594.128 76.1115 595.28 77.3275 596.688 78.1808C598.138 79.0342 599.674 79.4608 601.296 79.4608C602.96 79.4608 604.517 79.0555 605.968 78.2448C607.418 77.3915 608.57 76.1968 609.424 74.6608C610.277 73.0822 610.704 71.2048 610.704 69.0288ZM626.174 68.9008C626.174 65.3168 626.878 62.1382 628.286 59.3648C629.737 56.5915 631.679 54.4582 634.111 52.9648C636.585 51.4715 639.337 50.7248 642.367 50.7248C645.012 50.7248 647.316 51.2582 649.279 52.3248C651.284 53.3915 652.884 54.7355 654.079 56.3568V51.3008H663.103V86.7568H654.079V81.5728C652.927 83.2368 651.327 84.6235 649.279 85.7328C647.273 86.7995 644.948 87.3328 642.303 87.3328C639.316 87.3328 636.585 86.5648 634.111 85.0288C631.679 83.4928 629.737 81.3382 628.286 78.5648C626.878 75.7488 626.174 72.5275 626.174 68.9008ZM654.079 69.0288C654.079 66.8528 653.652 64.9968 652.799 63.4608C651.945 61.8822 650.793 60.6875 649.343 59.8768C647.892 59.0235 646.335 58.5968 644.671 58.5968C643.007 58.5968 641.471 59.0022 640.062 59.8128C638.655 60.6235 637.503 61.8182 636.607 63.3968C635.753 64.9328 635.327 66.7675 635.327 68.9008C635.327 71.0342 635.753 72.9115 636.607 74.5328C637.503 76.1115 638.655 77.3275 640.062 78.1808C641.513 79.0342 643.049 79.4608 644.671 79.4608C646.335 79.4608 647.892 79.0555 649.343 78.2448C650.793 77.3915 651.945 76.1968 652.799 74.6608C653.652 73.0822 654.079 71.2048 654.079 69.0288Z" fill="#766C8C"/>
<path fill-rule="evenodd" clip-rule="evenodd" d="M60.9956 66.4239C59.6627 64.8656 57.44 64.4464 55.77 65.8733C54.0999 67.3003 53.8648 69.686 55.1763 71.3736C56.2667 72.7767 59.5667 75.7361 60.6482 76.6939C60.7692 76.801 60.8297 76.8546 60.9003 76.8757C60.9619 76.8941 61.0293 76.8941 61.0909 76.8757C61.1615 76.8546 61.222 76.801 61.343 76.6939C62.4245 75.7361 65.7245 72.7767 66.8149 71.3736C68.1264 69.686 67.92 67.2852 66.2212 65.8733C64.5225 64.4614 62.3285 64.8656 60.9956 66.4239Z" fill="#766C8C" stroke="#766C8C" stroke-width="2" stroke-linecap="round" stroke-linejoin="round"/>
</svg>
