<svg width="860" height="505" viewBox="0 0 860 505" fill="none" xmlns="http://www.w3.org/2000/svg">
<g clip-path="url(#clip0_1_2)">
<path d="M823.37 0.779999H486.41V198.64H823.37V0.779999Z" stroke="#766C8C" stroke-width="1.56" stroke-miterlimit="10"/>
<path d="M383.47 300.99L393.11 240.11V227.5C393.11 227.5 376.55 225.82 373.72 218.13C370.89 210.44 383.61 166.06 385.28 162.7C386.95 159.34 387.22 157.56 391.28 155.49C395.34 153.42 406.66 147.35 410.13 144.68C412.062 143.182 414.155 141.904 416.37 140.87C416.37 140.87 417.95 137.87 420.37 137.64C422.79 137.41 437.49 137.32 438.51 137.73C439.53 138.14 441.51 141.18 442.2 141.43C442.89 141.68 446.2 145.14 460.45 148.33C474.7 151.52 499.45 155.43 499.45 155.43L532.27 108.43L544.55 112.76L518.33 158.36C518.33 158.36 510.05 175.54 505.33 176.36C500.61 177.18 468.33 179.91 468.33 179.91L470.14 224.59C470.14 224.59 471.46 245.13 472.44 255.03C473.42 264.93 481.9 301.03 481.9 301.03L383.47 300.99Z" fill="white"/>
<path d="M204.82 503.9C205.133 466.648 220.152 431.028 246.604 404.797C273.057 378.566 308.802 363.848 346.055 363.848C383.308 363.848 419.053 378.566 445.506 404.797C471.958 431.028 486.977 466.648 487.29 503.9H204.82Z" fill="#E0D8F3"/>
<path d="M794.46 503.38H331.52" stroke="#766C8C" stroke-width="1.18" stroke-miterlimit="10"/>
<path d="M331.52 503.38H186.35" stroke="#766C8C" stroke-width="1.18" stroke-miterlimit="10"/>
<path d="M387.82 300.99L388.98 493.29H403.06L433.72 318.29L429.82 300.99H387.82Z" fill="#766C8C"/>
<path d="M429.82 300.99L471.82 493.29H486.38L476.82 300.99H432.04" fill="#766C8C"/>
<path d="M499.42 155.5L532.35 108.44L545.07 112.92C545.07 112.92 510.07 173.27 507.82 175.51C505.57 177.75 469.96 179.71 469.96 179.71C469.96 179.71 469.41 204.95 470.72 237.71C471.62 259.96 478.6 278.55 482.06 300.98H383.47L393.11 240.1L393.65 185.67" stroke="#766C8C" stroke-width="1.18" stroke-miterlimit="10"/>
<path d="M375.65 501.09C379.54 498.25 386.08 493.32 390.94 493.32H402.82V503.44H376.52C376.242 503.447 375.97 503.366 375.74 503.21C375.511 503.054 375.336 502.83 375.24 502.57C375.155 502.307 375.155 502.023 375.24 501.76C375.306 501.493 375.453 501.252 375.66 501.07L375.65 501.09Z" stroke="#766C8C" stroke-width="1.18" stroke-miterlimit="10"/>
<path d="M499.82 501.09C495.94 498.25 489.39 493.32 484.54 493.32H472.61V503.44H498.93C499.205 503.442 499.475 503.358 499.7 503.2C499.929 503.047 500.105 502.825 500.201 502.567C500.298 502.308 500.312 502.026 500.24 501.76C500.174 501.492 500.028 501.251 499.82 501.07V501.09Z" stroke="#766C8C" stroke-width="1.18" stroke-miterlimit="10"/>
<path d="M541.69 100.14C541.69 100.14 546 103.59 545.57 104.58C545.14 105.57 541.69 111.3 541.69 111.3L532.35 108.43L541.82 92.06C541.865 91.97 541.944 91.9017 542.04 91.87C542.134 91.8356 542.236 91.8356 542.33 91.87C542.432 91.8987 542.52 91.9624 542.58 92.05C542.632 92.1342 542.659 92.2311 542.66 92.33L541.21 101.23" stroke="#766C8C" stroke-width="1.18" stroke-miterlimit="10"/>
<path d="M412.92 142.42C414.582 141.379 416.509 140.841 418.47 140.87H438.74C440.794 140.837 442.809 141.438 444.51 142.59" stroke="#766C8C" stroke-width="1.18" stroke-miterlimit="10"/>
<path d="M416.03 141.28L417.86 138.71C418.162 138.351 418.546 138.07 418.98 137.89C419.411 137.702 419.88 137.617 420.35 137.64H437.64C438.102 137.62 438.563 137.702 438.99 137.88C439.417 138.059 439.799 138.328 440.11 138.67L442.18 141.44" stroke="#766C8C" stroke-width="1.18" stroke-miterlimit="10"/>
<path d="M444.51 142.59C450.15 147.01 479.81 153.24 499.42 155.49" stroke="#766C8C" stroke-width="1.18" stroke-miterlimit="10"/>
<path d="M392.68 227.5C392.68 227.5 380.54 226.73 374.68 220.14C368.82 213.55 382.87 167.73 385.88 161.26C386.504 159.848 387.378 158.56 388.46 157.46C392.14 153.97 401.67 151.91 412.96 142.46" stroke="#766C8C" stroke-width="1.18" stroke-miterlimit="10"/>
<path d="M429.82 300.99L417.97 409.55L434.14 318.5L429.82 300.99Z" fill="#766C8C"/>
<path d="M387.91 307.5C389.39 307.5 476.82 300.98 476.82 300.98H387.82L387.91 307.5Z" fill="#766C8C"/>
<path d="M386.21 226.38C386.68 221.57 393.65 185.66 393.65 185.66L392.65 227.49C392.65 227.49 386.1 227.64 386.21 226.38Z" fill="#766C8C"/>
<path d="M460.41 180.3C460.81 180.3 474.83 179.39 474.83 179.39" stroke="#766C8C" stroke-width="1.18" stroke-miterlimit="10"/>
<path d="M422.62 129.95C420.86 130.44 418.07 130.22 417.89 128.48C416.2 113.1 411.42 116.95 412.19 105.92C413.1 92.92 416.42 86.24 427.68 84.74C438.94 83.24 460.88 86.61 458.44 93.96C456.88 98.69 450.03 97.21 450.38 100.72C450.73 104.23 449.12 106.72 448.75 108.06C448.62 108.58 448.42 109.54 448.24 110.52C448.17 110.721 448.05 110.9 447.89 111.04C447.727 111.179 447.531 111.272 447.32 111.31C447.112 111.34 446.899 111.319 446.7 111.25C446.505 111.171 446.333 111.044 446.2 110.88C445.2 109.33 443.66 107.8 441.86 108.24C440.904 108.45 440.002 108.855 439.21 109.43C438.402 110.005 437.721 110.74 437.21 111.59C436.713 112.435 436.4 113.376 436.29 114.35C436.171 115.321 436.259 116.306 436.55 117.24C437.82 121.92 435.09 125.6 430.37 127.43C427.82 128.44 424.82 129.34 422.62 129.95Z" fill="#766C8C"/>
<path d="M440.95 141.01L442.74 132.92C442.74 132.92 448.43 133.83 450.25 133.83C452.07 133.83 454.13 120.9 454.25 119.56C454.37 118.22 455.74 118.5 456.72 117.51C457.31 116.91 455.38 113.89 454.2 112.36C453.02 110.83 453.68 108.03 454.66 106.16C455.64 104.29 454.16 99.6 453.41 93.54" stroke="#766C8C" stroke-width="1.18" stroke-miterlimit="10"/>
<path d="M421.42 137.73L421 128.27" stroke="#766C8C" stroke-width="1.18" stroke-miterlimit="10"/>
<path d="M464.26 180.3L471.45 247.37L469.92 179.68L464.26 180.3Z" fill="#766C8C"/>
<path d="M533.47 107.16L545.06 112.9L532.35 108.42L533.47 107.16Z" fill="#766C8C"/>
<path d="M421.01 134.84L438.76 137.93L440.99 141.01C440.99 141.01 439.8 137.58 437.68 137.63C435.56 137.68 421.24 137.38 421.24 137.38L421.01 134.84Z" fill="#766C8C"/>
<path d="M513.32 31.1L547.04 68.78C549.515 71.5551 552.879 73.3815 556.555 73.9454C560.23 74.5093 563.987 73.7754 567.18 71.87L602.72 50.76C605.765 48.9422 609.328 48.1876 612.848 48.6148C616.369 49.042 619.648 50.6267 622.17 53.12L675.34 105.5C676.882 107.028 678.718 108.226 680.737 109.021C682.756 109.817 684.916 110.194 687.085 110.128C689.255 110.063 691.388 109.556 693.355 108.64C695.323 107.725 697.083 106.418 698.53 104.8L750.91 46.5C752.473 44.7727 754.394 43.4076 756.54 42.5L808.43 20.31" stroke="#766C8C" stroke-width="1.56" stroke-miterlimit="10"/>
<path d="M585.27 142.59H782.43" stroke="#766C8C" stroke-width="1.56" stroke-miterlimit="10"/>
<path d="M578.36 169.52H794.45" stroke="#766C8C" stroke-width="1.56" stroke-miterlimit="10"/>
<path d="M824.26 198.92H485.91V202.02H824.26V198.92Z" fill="#766C8C"/>
<path d="M43.82 395.76C-30.3 333.05 -21.64 120.76 167.97 147.7C357.58 174.64 544.13 649.7 859.14 428.39" stroke="#766C8C" stroke-miterlimit="10"/>
</g>
<defs>
<clipPath id="clip0_1_2">
<rect width="859.42" height="504.03" fill="white"/>
</clipPath>
</defs>
</svg>
